<svg xmlns="http://www.w3.org/2000/svg" width="1000" height="1400" viewBox="0 0 1000 1400"><g transform="translate(500,1400) scale(0.86) translate(-500,-1400)" stroke-linejoin="round" stroke-linecap="round"><defs><filter id="b2" filterUnits="userSpaceOnUse" x="-200" y="-200" width="1400" height="1800"><feGaussianBlur stdDeviation="2"/></filter><filter id="b4" filterUnits="userSpaceOnUse" x="-200" y="-200" width="1400" height="1800"><feGaussianBlur stdDeviation="4"/></filter><filter id="b8" filterUnits="userSpaceOnUse" x="-200" y="-200" width="1400" height="1800"><feGaussianBlur stdDeviation="8"/></filter><filter id="b10" filterUnits="userSpaceOnUse" x="-200" y="-200" width="1400" height="1800"><feGaussianBlur stdDeviation="10"/></filter><filter id="b20" filterUnits="userSpaceOnUse" x="-200" y="-200" width="1400" height="1800"><feGaussianBlur stdDeviation="20"/></filter><radialGradient id="skinG" cx="0.5" cy="0.42" r="0.62"><stop offset="0" stop-color="#f3d1b6"/><stop offset="0.6" stop-color="#eebf9a"/><stop offset="1" stop-color="#d19e79"/></radialGradient><linearGradient id="shirtG" x1="0" y1="0" x2="1" y2="0.25"><stop offset="0" stop-color="#093988"/><stop offset="0.25" stop-color="#3971cd"/><stop offset="0.6" stop-color="#0d52c2"/><stop offset="1" stop-color="#093988"/></linearGradient><linearGradient id="hairG" x1="0" y1="0" x2="0.35" y2="1"><stop offset="0" stop-color="#665c56"/><stop offset="0.45" stop-color="#2a1c14"/><stop offset="1" stop-color="#150d08"/></linearGradient></defs><linearGradient id="limbR" gradientUnits="userSpaceOnUse" x1="644.6" y1="0" x2="783.4" y2="0"><stop offset="0" stop-color="#d19e79"/><stop offset="0.3" stop-color="#f2cfb3"/><stop offset="0.65" stop-color="#eebf9a"/><stop offset="1" stop-color="#a37b5e"/></linearGradient><path d="M 683 700 L 745 450 L 705 215" fill="none" stroke="#a37b5e" stroke-width="70"/><line x1="683" y1="700" x2="745" y2="450" stroke="url(#limbR)" stroke-width="64"/><line x1="745" y1="450" x2="705" y2="215" stroke="url(#limbR)" stroke-width="58.88"/><line x1="745" y1="455" x2="737.8" y2="332.5" stroke="#a37b5e" stroke-width="16.0" opacity="0.35" filter="url(#b8)"/><circle cx="751" cy="450" r="17.92" fill="#a37b5e" opacity="0.35" filter="url(#b8)"/><line x1="675" y1="660" x2="733" y2="490" stroke="#fff" stroke-width="11.52" opacity="0.18" filter="url(#b8)"/><line x1="678.888" y1="185" x2="675.488" y2="133" stroke="#a37b5e" stroke-width="23.56"/><line x1="696.552" y1="185" x2="695.452" y2="123" stroke="#a37b5e" stroke-width="23.56"/><line x1="714.216" y1="185" x2="715.416" y2="125" stroke="#a37b5e" stroke-width="23.56"/><line x1="731.112" y1="185" x2="734.512" y2="137" stroke="#a37b5e" stroke-width="23.56"/><line x1="678.12" y1="205" x2="647.4" y2="171" stroke="#a37b5e" stroke-width="23.56"/><ellipse cx="705" cy="189" rx="41.4" ry="40.12" fill="#a37b5e"/><line x1="678.888" y1="185" x2="675.488" y2="133" stroke="url(#limbR)" stroke-width="18.56"/><line x1="671.7588000000001" y1="166.8" x2="683.6372000000001" y2="166.8" stroke="#a37b5e" stroke-width="1.4" opacity="0.6"/><line x1="670.6368" y1="149.64" x2="682.5152" y2="149.64" stroke="#a37b5e" stroke-width="1.4" opacity="0.6"/><ellipse cx="675.488" cy="136" rx="5.568" ry="4.64" fill="#fff" opacity="0.25" filter="url(#b2)"/><line x1="696.552" y1="185" x2="695.452" y2="123" stroke="url(#limbR)" stroke-width="18.56"/><line x1="690.2278" y1="163.3" x2="702.1062000000001" y2="163.3" stroke="#a37b5e" stroke-width="1.4" opacity="0.6"/><line x1="689.8648" y1="142.84" x2="701.7432" y2="142.84" stroke="#a37b5e" stroke-width="1.4" opacity="0.6"/><ellipse cx="695.452" cy="126" rx="5.568" ry="4.64" fill="#fff" opacity="0.25" filter="url(#b2)"/><line x1="714.216" y1="185" x2="715.416" y2="125" stroke="url(#limbR)" stroke-width="18.56"/><line x1="708.6967999999999" y1="164.0" x2="720.5752" y2="164.0" stroke="#a37b5e" stroke-width="1.4" opacity="0.6"/><line x1="709.0928" y1="144.2" x2="720.9712000000001" y2="144.2" stroke="#a37b5e" stroke-width="1.4" opacity="0.6"/><ellipse cx="715.416" cy="128" rx="5.568" ry="4.64" fill="#fff" opacity="0.25" filter="url(#b2)"/><line x1="731.112" y1="185" x2="734.512" y2="137" stroke="url(#limbR)" stroke-width="18.56"/><line x1="726.3627999999999" y1="168.2" x2="738.2411999999999" y2="168.2" stroke="#a37b5e" stroke-width="1.4" opacity="0.6"/><line x1="727.4848" y1="152.36" x2="739.3632" y2="152.36" stroke="#a37b5e" stroke-width="1.4" opacity="0.6"/><ellipse cx="734.512" cy="140" rx="5.568" ry="4.64" fill="#fff" opacity="0.25" filter="url(#b2)"/><line x1="678.12" y1="205" x2="647.4" y2="171" stroke="url(#limbR)" stroke-width="18.56"/><line x1="661.4287999999999" y1="193.1" x2="673.3072" y2="193.1" stroke="#a37b5e" stroke-width="1.4" opacity="0.6"/><line x1="651.2912" y1="181.88" x2="663.1696000000001" y2="181.88" stroke="#a37b5e" stroke-width="1.4" opacity="0.6"/><ellipse cx="647.4" cy="174" rx="5.568" ry="4.64" fill="#fff" opacity="0.25" filter="url(#b2)"/><ellipse cx="705" cy="189" rx="38.4" ry="37.12" fill="url(#limbR)"/><path d="M 676.2 175 Q 705 185 730.6 169" fill="none" stroke="#a37b5e" stroke-width="1.8" opacity="0.55"/><path d="M 689.0 210 Q 701.8 185 714.6 163" fill="none" stroke="#a37b5e" stroke-width="1.6" opacity="0.5"/><ellipse cx="705" cy="193" rx="19.2" ry="16.0" fill="#a37b5e" opacity="0.25" filter="url(#b4)"/><linearGradient id="slvR" gradientUnits="userSpaceOnUse" x1="636.0" y1="0" x2="730.0" y2="0"><stop offset="0" stop-color="#0a3e92"/><stop offset="0.35" stop-color="#316ccb"/><stop offset="0.7" stop-color="#0d52c2"/><stop offset="1" stop-color="#08357e"/></linearGradient><line x1="709.04" y1="595.0" x2="716.48" y2="565.0" stroke="#000" stroke-width="51.2" opacity="0.14" filter="url(#b4)"/><line x1="683" y1="710" x2="709.04" y2="595.0" stroke="#072d6b" stroke-width="100" stroke-linecap="butt"/><circle cx="683" cy="710" r="50.0" fill="#072d6b"/><line x1="683" y1="710" x2="709.04" y2="595.0" stroke="url(#slvR)" stroke-width="94" stroke-linecap="butt"/><circle cx="683" cy="710" r="47.0" fill="url(#slvR)"/><path d="M 659.214 669.25 Q 692.114 657.25 725.014 671.25" stroke="#000" stroke-width="5" opacity="0.18" fill="none" filter="url(#b2)"/><path d="M 665.724 643.0 Q 698.624 631.0 731.524 645.0" stroke="#000" stroke-width="5" opacity="0.18" fill="none" filter="url(#b2)"/><line x1="745.8044839842946" y1="645.4132848281051" x2="654.5683160157052" y2="622.7867151718949" stroke="#ffffff" stroke-width="11" stroke-linecap="butt"/><line x1="748.9292839842947" y1="631.6132848281051" x2="657.6931160157053" y2="608.9867151718948" stroke="#E8000D" stroke-width="7" stroke-linecap="butt"/><line x1="751.5332839842946" y1="620.1132848281051" x2="660.2971160157052" y2="597.4867151718948" stroke="#ffffff" stroke-width="11" stroke-linecap="butt"/></g></svg>